\<svg width="120" height="167" viewBox="0 0 120 167" fill="none" xmlns="http://www.w3.org/2000/svg">
<path d="M47.2634 118.025C48.8159 118.025 49.5682 119.923 48.4372 120.987L38.4968 130.334C38.3941 130.431 38.3941 130.594 38.4968 130.69L48.4372 140.038C49.5681 141.101 48.8159 143 47.2634 143H25.7143C24.7676 143 24 142.233 24 141.286V119.739C24 118.792 24.7676 118.025 25.7143 118.025H47.2634ZM94.5306 130.512C94.5306 124.427 89.5966 119.494 83.5102 119.494C77.4238 119.494 72.4898 124.427 72.4898 130.512C72.4898 136.598 77.4238 141.531 83.5102 141.531C89.5966 141.531 94.5306 136.598 94.5306 130.512ZM71.0204 74.1113C71.0205 72.5844 72.8668 71.8199 73.9467 72.8995L94.1126 93.0618C95.1587 94.1079 94.4735 95.8727 93.0411 95.9819L92.9005 95.9877H72.7347C71.7879 95.9877 71.0204 95.2203 71.0204 94.2737V74.1113ZM24 83.5C24 76.6033 29.5919 71.0123 36.4898 71.0123C43.0376 71.0123 48.4076 76.0497 48.9365 82.4603C49.0196 83.4671 48.1951 84.2346 47.2653 84.2346H37.4694C37.3341 84.2346 37.2245 84.3442 37.2245 84.4794V94.2737C37.2245 95.2033 36.4569 96.0276 35.4499 95.9446C29.0382 95.4158 24 90.0467 24 83.5ZM94.5306 36.4877C94.5306 30.4023 89.5966 25.4691 83.5102 25.4691C77.4238 25.4691 72.4898 30.4023 72.4898 36.4877C72.4898 42.573 77.4238 47.5062 83.5102 47.5062C89.5966 47.5062 94.5306 42.573 94.5306 36.4877ZM47.5102 25.714C47.5102 25.5788 47.4006 25.4691 47.2653 25.4691H27.0995C26.8814 25.4693 26.7722 25.7329 26.9263 25.8871L47.0922 46.0495C47.2464 46.2036 47.5101 46.0944 47.5102 45.8764V25.714ZM96 130.512C96 137.409 90.4081 143 83.5102 143C76.6123 143 71.0204 137.409 71.0204 130.512C71.0204 123.616 76.6123 118.025 83.5102 118.025C90.4081 118.025 96 123.616 96 130.512ZM25.4694 141.286C25.4694 141.421 25.5792 141.531 25.7143 141.531H47.2634C47.4849 141.531 47.592 141.26 47.4308 141.108L37.4895 131.761C36.7702 131.084 36.7702 129.941 37.4895 129.264L47.4308 119.917C47.592 119.765 47.4849 119.494 47.2634 119.494H25.7143C25.5792 119.494 25.4694 119.604 25.4694 119.739V141.286ZM25.4694 83.5C25.4694 89.2757 29.9146 94.0146 35.5705 94.4812C35.6151 94.4849 35.6551 94.4703 35.6901 94.4363C35.7273 94.3999 35.7551 94.343 35.7551 94.2737V84.4794C35.7551 83.5328 36.5226 82.7654 37.4694 82.7654H47.2653C47.3347 82.7654 47.3915 82.7376 47.4279 82.7004C47.4619 82.6655 47.4766 82.6255 47.4729 82.5808C47.0062 76.9259 42.2665 72.4815 36.4898 72.4815C30.4034 72.4815 25.4694 77.4146 25.4694 83.5ZM72.4898 94.2737C72.4898 94.4089 72.5994 94.5185 72.7347 94.5185H92.9005C93.1186 94.5184 93.2278 94.2548 93.0737 94.1005L72.9078 73.9382C72.7536 73.7841 72.4899 73.8933 72.4898 74.1113V94.2737ZM96 36.4877C96 43.3844 90.4081 48.9753 83.5102 48.9753C76.6123 48.9753 71.0204 43.3844 71.0204 36.4877C71.0204 29.5909 76.6123 24 83.5102 24C90.4081 24 96 29.5909 96 36.4877ZM48.9796 45.8764C48.9795 47.4032 47.1332 48.1678 46.0533 47.0882L25.8874 26.9258C24.8076 25.8461 25.5724 24.0001 27.0995 24H47.2653C48.2121 24 48.9796 24.7674 48.9796 25.714V45.8764Z" fill="#FF4C1D"/>
</svg>
