<svg width="120" height="168" viewBox="0 0 120 168" fill="none" xmlns="http://www.w3.org/2000/svg">
<path d="M48 25C48 24.4477 47.5523 24 47 24H26.4142C25.5233 24 25.0771 25.0771 25.7071 25.7071L46.2929 46.2929C46.9229 46.9229 48 46.4767 48 45.5858V25Z" fill="#FF4C1D"/>
<path d="M36 72C42.2908 72 47.4509 76.8406 47.959 83.0003C48.0043 83.5507 47.5523 84 47 84H37C36.4477 84 36 84.4477 36 85V95C36 95.5523 35.5507 96.0043 35.0003 95.959C28.8406 95.4509 24 90.2908 24 84C24 77.3726 29.3726 72 36 72Z" fill="#FF4C1D"/>
<path d="M37.5347 131.272C37.1148 131.666 37.1148 132.334 37.5347 132.728L47.6827 142.272C48.3426 142.892 47.9035 144 46.9977 144H25.0003C24.448 144 24.0003 143.552 24.0003 143V121C24.0003 120.448 24.448 120 25.0003 120H46.9977C47.9035 120 48.3426 121.108 47.6827 121.728L37.5347 131.272Z" fill="#FF4C1D"/>
<path d="M96 36C96 42.6274 90.6274 48 84 48C77.3726 48 72 42.6274 72 36C72 29.3726 77.3726 24 84 24C90.6274 24 96 29.3726 96 36Z" fill="#FF4C1D"/>
<path d="M72 95C72 95.5523 72.4477 96 73 96H93.5858C94.4767 96 94.9229 94.9229 94.2929 94.2929L73.7071 73.7071C73.0771 73.0771 72 73.5233 72 74.4142L72 95Z" fill="#FF4C1D"/>
<path d="M96 132C96 138.627 90.6274 144 84 144C77.3726 144 72 138.627 72 132C72 125.373 77.3726 120 84 120C90.6274 120 96 125.373 96 132Z" fill="#FF4C1D"/>
</svg>
